<?xml version="1.0" encoding="UTF-8" standalone="no"?>
<svg
   xmlns:dc="http://purl.org/dc/elements/1.1/"
   xmlns:cc="http://creativecommons.org/ns#"
   xmlns:rdf="http://www.w3.org/1999/02/22-rdf-syntax-ns#"
   xmlns:svg="http://www.w3.org/2000/svg"
   xmlns="http://www.w3.org/2000/svg"
   xmlns:sodipodi="http://sodipodi.sourceforge.net/DTD/sodipodi-0.dtd"
   xmlns:inkscape="http://www.inkscape.org/namespaces/inkscape"
   sodipodi:docname="vis-logo-svg.svg"
   inkscape:version="1.0 (4035a4fb49, 2020-05-01)"
   id="svg8"
   version="1.1"
   viewBox="0 0 90 56"
   height="56mm"
   width="90mm"
   inkscape:export-filename="D:\Dokumente\Dissertation\Designs\Vis Group Logo\DataVisGroup_White2.png"
   inkscape:export-xdpi="200"
   inkscape:export-ydpi="200">
  <defs
     id="defs2" />
  <sodipodi:namedview
     inkscape:object-paths="true"
     inkscape:snap-bbox="false"
     inkscape:snap-object-midpoints="true"
     inkscape:window-maximized="1"
     inkscape:window-y="-8"
     inkscape:window-x="1912"
     inkscape:window-height="1017"
     inkscape:window-width="1920"
     fit-margin-bottom="3"
     fit-margin-right="3"
     fit-margin-left="3"
     fit-margin-top="3"
     inkscape:snap-global="true"
     showgrid="false"
     inkscape:document-rotation="0"
     inkscape:current-layer="layer1"
     inkscape:document-units="mm"
     inkscape:cy="148.51977"
     inkscape:cx="328.2342"
     inkscape:zoom="0.78528237"
     inkscape:pageshadow="2"
     inkscape:pageopacity="1"
     borderopacity="1.0"
     bordercolor="#666666"
     pagecolor="#ffffff"
     id="base" />
  <metadata
     id="metadata5">
    <rdf:RDF>
      <cc:Work
         rdf:about="">
        <dc:format>image/svg+xml</dc:format>
        <dc:type
           rdf:resource="http://purl.org/dc/dcmitype/StillImage" />
        <dc:title />
      </cc:Work>
    </rdf:RDF>
  </metadata>
  <g
     transform="translate(-105.59018,-189.27042)"
     id="layer1"
     inkscape:groupmode="layer"
     inkscape:label="Ebene 1">
    <path
       sodipodi:nodetypes="cscscsccsccssccscscssssssscss"
       d="m 147.40415,192.27042 c -7.58236,0.0132 -14.7839,2.02398 -21.60453,6.03273 -6.84327,4.02204 -12.29039,9.34619 -16.34137,15.97243 -0.57871,1.01275 -0.86807,2.01103 -0.86807,2.99484 0,0.98381 0.28936,1.98208 0.86807,2.99483 4.05098,6.62625 9.4981,11.95039 16.34137,15.97244 6.82063,4.00874 14.02217,6.01947 21.60453,6.03273 v -5.55564 c -6.74216,-0.013 -13.0033,-1.77056 -18.78331,-5.27317 -5.80159,-3.51567 -10.62659,-8.2394 -14.47503,-14.17119 4.39821,-6.8288 9.91044,-11.93593 16.53669,-15.32139 -1.76507,3.0093 -2.64761,6.26455 -2.64761,9.76576 0,5.35307 1.90251,9.93213 5.70754,13.73716 3.78712,3.78712 8.69611,6.37777 13.66172,6.39441 z m -6.06528,8.09065 c 0.003,-1e-5 0.007,-1e-5 0.0104,0 1.15052,0 2.0832,0.93268 2.0832,2.0832 -1e-5,0.75025 -0.40344,1.44255 -1.05618,1.81243 -0.44477,0.31267 -0.87064,0.67143 -1.27701,1.07779 -1.76507,1.76507 -2.6476,3.89183 -2.6476,6.3803 0,0.57871 -0.20255,1.07061 -0.60765,1.47571 -0.4051,0.4051 -0.897,0.60765 -1.47572,0.60765 -0.57871,0 -1.07061,-0.20255 -1.47571,-0.60765 -0.4051,-0.4051 -0.60765,-0.897 -0.60765,-1.47571 0,-3.61695 1.29487,-6.72029 3.8846,-9.31003 0.59654,-0.59653 1.22086,-1.12299 1.87194,-1.58201 0.36762,-0.29651 0.82507,-0.4593 1.29736,-0.46168 z"
       style="fill:#bfbfbf;fill-opacity:1;stroke-width:0.0434033"
       id="path6" />
    <path
       id="path888"
       style="fill:#007dad;fill-opacity:1;stroke-width:0.303198;stroke-linecap:round;stroke-linejoin:round"
       d="M 149.52441,223.54257 H 176.733 l -1e-5,8.30379 h -27.20858 z"
       sodipodi:nodetypes="ccccc" />
    <path
       sodipodi:nodetypes="ccccc"
       d="m 149.52441,233.96662 h 14.04374 v 8.30379 h -14.04374 z"
       style="fill:#f15a4e;fill-opacity:1;stroke-width:0.217828;stroke-linecap:round;stroke-linejoin:round"
       id="path890" />
    <path
       sodipodi:nodetypes="ccccc"
       d="m 149.52441,192.27042 h 7.22019 l -1e-5,8.30379 h -7.22019 z"
       style="fill:#ae619d;fill-opacity:1;stroke-width:0.156188;stroke-linecap:round;stroke-linejoin:round"
       id="path907" />
    <path
       id="path909"
       style="fill:#b2d349;fill-opacity:1;stroke-width:0.26984;stroke-linecap:round;stroke-linejoin:round"
       d="m 149.52441,202.69447 h 21.55064 v 8.30379 H 149.5244 Z"
       sodipodi:nodetypes="ccccc" />
    <path
       sodipodi:nodetypes="ccccc"
       d="m 149.52441,213.11852 h 33.86557 v 8.30379 H 149.5244 Z"
       style="fill:#fdb812;fill-opacity:1;stroke-width:0.338262;stroke-linecap:round;stroke-linejoin:round"
       id="path911" />
  </g>
</svg>
